HIERARCHY
ROOT Hips
{
	OFFSET 0.00000 0.00000 0.00000
	CHANNELS 6 Xposition Yposition Zposition Zrotation Yrotation Xrotation 
	JOINT LHipJoint
	{
		OFFSET 0 0 0
		CHANNELS 3 Zrotation Yrotation Xrotation
		JOINT LeftUpLeg
		{
			OFFSET 1.56857 -1.73443 1.15205
			CHANNELS 3 Zrotation Yrotation Xrotation
			JOINT LeftLeg
			{
				OFFSET 2.39362 -6.57643 0.00000
				CHANNELS 3 Zrotation Yrotation Xrotation
				JOINT LeftFoot
				{
					OFFSET 2.50952 -6.89485 0.00000
					CHANNELS 3 Zrotation Yrotation Xrotation
					JOINT LeftToeBase
					{
						OFFSET 0.17171 -0.47178 1.88682
						CHANNELS 3 Zrotation Yrotation Xrotation
						End Site
						{
							OFFSET 0.00000 -0.00000 0.98146
						}
					}
				}
			}
		}
	}
	JOINT RHipJoint
	{
		OFFSET 0 0 0
		CHANNELS 3 Zrotation Yrotation Xrotation
		JOINT RightUpLeg
		{
			OFFSET -1.28153 -1.73443 1.15205
			CHANNELS 3 Zrotation Yrotation Xrotation
			JOINT RightLeg
			{
				OFFSET -2.26861 -6.23296 0.00000
				CHANNELS 3 Zrotation Yrotation Xrotation
				JOINT RightFoot
				{
					OFFSET -2.54143 -6.98254 0.00000
					CHANNELS 3 Zrotation Yrotation Xrotation
					JOINT RightToeBase
					{
						OFFSET -0.23309 -0.64041 1.93119
						CHANNELS 3 Zrotation Yrotation Xrotation
						End Site
						{
							OFFSET -0.00000 -0.00000 1.02013
						}
					}
				}
			}
		}
	}
	JOINT LowerBack
	{
		OFFSET 0 0 0
		CHANNELS 3 Zrotation Yrotation Xrotation
		JOINT Spine
		{
			OFFSET -0.07096 2.10460 -0.27878
			CHANNELS 3 Zrotation Yrotation Xrotation
			JOINT Spine1
			{
				OFFSET -0.00826 2.13662 -0.08279
				CHANNELS 3 Zrotation Yrotation Xrotation
				JOINT Neck
				{
					OFFSET 0 0 0
					CHANNELS 3 Zrotation Yrotation Xrotation
					JOINT Neck1
					{
						OFFSET 0.03239 1.77799 0.24435
						CHANNELS 3 Zrotation Yrotation Xrotation
						JOINT Head
						{
							OFFSET 0.01026 1.74194 -0.49664
							CHANNELS 3 Zrotation Yrotation Xrotation
							End Site
							{
								OFFSET 0.00170 1.83057 -0.19653
							}
						}
					}
				}
				JOINT LeftShoulder
				{
					OFFSET 0 0 0
					CHANNELS 3 Zrotation Yrotation Xrotation
					JOINT LeftArm
					{
						OFFSET 3.19178 1.35907 -0.31412
						CHANNELS 3 Zrotation Yrotation Xrotation
						JOINT LeftForeArm
						{
							OFFSET 4.85247 -0.00000 -0.00000
							CHANNELS 3 Zrotation Yrotation Xrotation
							JOINT LeftHand
							{
								OFFSET 3.55584 -0.00000 0.00000
								CHANNELS 3 Zrotation Yrotation Xrotation
								JOINT LeftFingerBase
								{
									OFFSET 0 0 0
									CHANNELS 3 Zrotation Yrotation Xrotation
									JOINT LeftHandIndex1
									{
										OFFSET 0.69320 -0.00000 0.00000
										CHANNELS 3 Zrotation Yrotation Xrotation
										End Site
										{
											OFFSET 0.55888 -0.00000 0.00000
										}
									}
								}
								JOINT LThumb
								{
									OFFSET 0 0 0
									CHANNELS 3 Zrotation Yrotation Xrotation
									End Site
									{
										OFFSET 0.56741 -0.00000 0.56741
									}
								}
							}
						}
					}
				}
				JOINT RightShoulder
				{
					OFFSET 0 0 0
					CHANNELS 3 Zrotation Yrotation Xrotation
					JOINT RightArm
					{
						OFFSET -3.28999 1.24191 -0.26899
						CHANNELS 3 Zrotation Yrotation Xrotation
						JOINT RightForeArm
						{
							OFFSET -4.64462 -0.00000 0.00000
							CHANNELS 3 Zrotation Yrotation Xrotation
							JOINT RightHand
							{
								OFFSET -3.40703 -0.00000 0.00000
								CHANNELS 3 Zrotation Yrotation Xrotation
								JOINT RightFingerBase
								{
									OFFSET 0 0 0
									CHANNELS 3 Zrotation Yrotation Xrotation
									JOINT RightHandIndex1
									{
										OFFSET -0.61958 -0.00000 0.00000
										CHANNELS 3 Zrotation Yrotation Xrotation
										End Site
										{
											OFFSET -0.49952 -0.00000 0.00000
										}
									}
								}
								JOINT RThumb
								{
									OFFSET 0 0 0
									CHANNELS 3 Zrotation Yrotation Xrotation
									End Site
									{
										OFFSET -0.50715 -0.00000 0.50715
									}
								}
							}
						}
					}
				}
			}
		}
	}
}
MOTION
Frames: 13
Frame Time: .0083333
0.1379 17.1468 -1.1827 147.1490 83.7753 137.1730 0.0000 0.0000 0.0000 -27.9696 -0.2647 21.6566 0.5079 4.5684 12.6815 0.7875 -2.6178 -16.0838 0.1635 -2.6048 -7.1805 0.0000 0.0000 0.0000 0.3501 -7.5030 2.5409 -0.1446 -2.4510 6.7537 -0.1274 -4.0946 -9.4963 -0.4923 -4.4987 12.4842 -10.8092 2.1656 1.2754 -1.3934 3.0888 3.5267 4.6071 1.3358 2.5022 5.9204 0.7632 -25.7125 -3.6539 1.0422 38.2747 -2.4309 1.1421 19.0076 0.0000 -0.0000 0.0000 -26.5140 -57.8303 20.9136 23.9629 -35.1250 -7.6852 -0.0000 -0.0000 0.1112 -3.5509 -26.5922 1.5912 -7.1250 0.0000 -0.0000 -19.8703 4.6244 19.4360 0.0000 -0.0000 0.0000 37.7830 55.1327 22.3968 -21.0875 31.9303 -6.0961 0.0000 0.0000 1.9620 -0.4651 -25.8899 0.2031 7.1250 -0.0000 -0.0000 30.1608 -53.2018 -6.5571
0.1869 17.1518 -1.1714 148.1490 83.5153 138.2060 0.0000 0.0000 0.0000 -27.9373 -0.2559 21.7247 0.5142 4.5962 12.7604 0.7669 -2.6947 -15.8514 0.1882 -2.7942 -7.7064 0.0000 0.0000 0.0000 0.3065 -7.3835 2.4815 -0.1396 -2.4080 6.6348 -0.1241 -4.0212 -9.3540 -0.4906 -4.4911 12.4626 -10.8274 2.1883 1.1805 -1.4377 3.1251 3.4411 4.5726 1.3586 2.4612 5.8529 0.7097 -25.6824 -3.5205 0.9365 38.2572 -2.3772 1.1120 18.9792 0.0000 -0.0000 0.0000 -26.5744 -57.8350 21.1733 24.0378 -35.2042 -7.7283 -0.0000 -0.0000 0.0857 -3.5418 -26.4657 1.5801 -7.1250 0.0000 -0.0000 -19.8709 4.7434 19.3896 0.0000 -0.0000 0.0000 37.9009 55.0855 22.2657 -21.0251 31.8576 -6.0632 0.0000 0.0000 1.9840 -0.4261 -25.5923 0.1841 7.1250 -0.0000 -0.0000 29.9975 -52.9376 -6.3124
0.2379 17.1581 -1.1632 148.2590 83.3190 138.3600 0.0000 0.0000 0.0000 -27.9785 -0.1952 21.8104 0.5200 4.6218 12.8328 0.7591 -2.7998 -15.7499 0.1649 -2.6161 -7.2117 0.0000 0.0000 0.0000 0.2071 -7.2964 2.3943 -0.1334 -2.3546 6.4866 -0.1194 -3.9230 -9.1570 -0.4942 -4.5072 12.5083 -10.7809 2.2192 1.0721 -1.5294 3.1752 3.3494 4.4533 1.3907 2.4246 5.7239 0.6706 -25.7390 -3.3367 0.8592 38.3047 -2.2841 1.0932 19.0148 -0.0000 0.0000 0.0000 -26.5646 -57.8024 21.3353 24.0705 -35.2387 -7.7472 -0.0000 -0.0000 0.1405 -3.6497 -26.3675 1.6227 -7.1250 0.0000 -0.0000 -19.9367 4.8406 19.4242 -0.0000 0.0000 0.0000 38.0920 55.1047 22.3103 -20.9824 31.8078 -6.0407 0.0000 0.0000 1.9154 -0.6025 -25.4407 0.2588 7.1250 -0.0000 -0.0000 29.7340 -52.8371 -6.1716
0.2913 17.1621 -1.1528 149.2170 83.0487 139.3300 0.0000 0.0000 0.0000 -27.9761 -0.2177 21.9422 0.5285 4.6588 12.9379 0.7553 -2.9964 -15.6779 0.1216 -2.2479 -6.1911 0.0000 0.0000 0.0000 0.1192 -7.3089 2.3713 -0.1266 -2.2935 6.3174 -0.1080 -3.8855 -8.8549 -0.4166 -4.1429 11.4789 -10.7619 2.2048 0.9447 -1.5804 3.1712 3.3097 4.3945 1.3894 2.4588 5.5501 0.6546 -25.8033 -3.1273 0.8222 38.2971 -2.1604 1.0839 19.0224 0.0000 -0.0000 0.0000 -26.4376 -57.7763 21.3585 24.0822 -35.2510 -7.7539 -0.0000 -0.0000 0.0921 -3.7273 -26.3111 1.6540 -7.1250 0.0000 -0.0000 -19.9834 4.8969 19.4538 0.0000 -0.0000 0.0000 38.1509 55.0266 22.4117 -21.0149 31.8457 -6.0578 0.0000 0.0000 1.8741 -0.7326 -25.3668 0.3139 7.1250 -0.0000 -0.0000 29.5651 -52.7956 -6.0997
0.3465 17.1639 -1.1393 151.2960 82.6977 141.3840 0.0000 0.0000 0.0000 -27.8682 -0.3180 22.1324 0.5355 4.6891 13.0239 0.7495 -3.1407 -15.5944 0.1026 -2.0659 -5.6878 0.0000 0.0000 0.0000 0.1103 -7.4173 2.4368 -0.1198 -2.2315 6.1459 -0.0963 -3.9163 -8.6028 -0.3819 -3.9685 10.9880 -10.7375 2.1767 0.8718 -1.5870 3.1394 3.2680 4.3767 1.3751 2.4622 5.5038 0.6351 -25.8165 -3.0644 0.7852 38.2657 -2.1292 1.0717 19.0038 -0.0000 0.0000 0.0000 -26.4894 -57.8197 21.5145 24.1194 -35.2903 -7.7754 -0.0000 -0.0000 0.0685 -3.7638 -26.1482 1.6606 -7.1250 0.0000 -0.0000 -20.0120 5.0520 19.4234 -0.0000 0.0000 0.0000 38.1181 54.7757 22.4403 -21.0950 31.9390 -6.1001 0.0000 0.0000 1.8764 -0.7301 -25.3561 0.3127 7.1250 -0.0000 -0.0000 29.5603 -52.7858 -6.0911
0.4008 17.1654 -1.1255 151.7830 82.2685 141.8480 0.0000 0.0000 0.0000 -28.0024 -0.3887 22.2820 0.5474 4.7398 13.1680 0.7439 -3.1756 -15.5286 0.1116 -2.1537 -5.9306 0.0000 0.0000 0.0000 -0.1492 -7.5345 2.4931 -0.1133 -2.1702 5.9763 -0.0864 -3.9594 -8.3970 -0.4623 -4.3613 12.0955 -10.9752 2.1310 0.7455 -1.5928 3.1014 3.2869 4.5081 1.3459 2.5509 5.6269 0.6423 -25.9137 -3.2905 0.8207 38.2221 -2.2527 1.0665 19.0077 0.0000 -0.0000 0.0000 -26.5597 -57.8229 21.3788 24.1528 -35.3254 -7.7947 -0.0000 -0.0000 0.3063 -3.7911 -26.0961 1.6696 -7.1250 0.0000 -0.0000 -20.0301 5.1021 19.4233 0.0000 -0.0000 0.0000 37.9094 54.7819 22.3646 -21.1075 31.9537 -6.1067 0.0000 0.0000 1.7946 -0.8203 -25.6743 0.3554 7.1250 -0.0000 -0.0000 29.6869 -53.0779 -6.3441
0.4498 17.1663 -1.1130 150.8370 81.9822 140.9250 0.0000 0.0000 0.0000 -28.2689 -0.3854 22.2825 0.5685 4.8289 13.4211 0.7326 -3.1623 -15.4084 0.1326 -2.3470 -6.4655 0.0000 0.0000 0.0000 -0.4414 -7.4189 2.3980 -0.1114 -2.1518 5.9253 -0.0765 -3.9830 -8.1645 -0.5372 -4.6962 13.0441 -11.3068 2.1397 0.5197 -1.5804 3.1527 3.3255 4.7150 1.3544 2.6982 5.6521 0.6514 -25.9248 -3.4333 0.8704 38.0874 -2.3124 1.0607 18.9348 -0.0000 -0.0000 0.0000 -26.5819 -57.8358 21.0721 24.1224 -35.2935 -7.7772 -0.0000 -0.0000 0.6138 -3.8075 -26.3329 1.6910 -7.1250 0.0000 -0.0000 -20.0279 4.8795 19.5102 -0.0000 -0.0000 0.0000 37.6494 54.9386 22.1964 -21.0504 31.8871 -6.0765 0.0000 0.0000 1.8072 -0.7694 -25.9872 0.3372 7.1250 -0.0000 -0.0000 29.9442 -53.3400 -6.6090
0.5032 17.1700 -1.0976 150.9100 81.5279 141.0350 0.0000 0.0000 0.0000 -28.4139 -0.4124 22.3111 0.5840 4.8930 13.6037 0.7102 -3.3405 -15.1389 0.1796 -2.7296 -7.5269 0.0000 0.0000 0.0000 -0.6678 -7.2258 2.5469 -0.1014 -2.0530 5.6522 -0.0620 -4.2963 -8.1103 -0.5831 -4.8894 13.5933 -11.2984 2.1609 0.7873 -1.8596 3.1245 2.9986 4.3985 1.3823 2.2217 5.7750 0.6443 -25.6763 -3.2482 0.7588 38.1592 -2.2671 1.0758 18.9038 -0.0000 -0.0000 0.0000 -26.8231 -57.7173 21.7869 24.1072 -35.2774 -7.7684 -0.0000 -0.0000 0.5949 -3.7813 -26.5002 1.6892 -7.1250 0.0000 -0.0000 -20.0051 4.7207 19.5482 -0.0000 -0.0000 0.0000 38.4943 54.6316 22.5711 -20.9824 31.8078 -6.0407 0.0000 0.0000 1.9666 -0.6033 -25.9269 0.2638 7.1250 -0.0000 -0.0000 30.0575 -53.2583 -6.5748
0.5527 17.1710 -1.0867 150.9910 81.3065 141.1730 0.0000 0.0000 0.0000 -28.3986 -0.3109 22.3313 0.5918 4.9252 13.6953 0.7002 -3.4200 -15.0183 0.2332 -3.1083 -8.5804 0.0000 0.0000 0.0000 -0.8142 -7.3311 2.3398 -0.1000 -2.0398 5.6156 -0.0471 -4.3212 -7.7205 -0.6017 -4.9654 13.8098 -11.4175 2.1969 0.5395 -1.8330 3.2094 3.0160 4.5030 1.4133 2.3604 5.6748 0.6161 -25.7314 -3.2439 0.7535 38.1073 -2.2480 1.0565 18.8861 0.0000 0.0000 0.0000 -26.8752 -57.9202 21.6581 24.0092 -35.1740 -7.7119 -0.0000 -0.0000 0.5552 -4.0660 -26.5743 1.8214 -7.1250 0.0000 -0.0000 -20.1627 4.6622 19.7480 0.0000 0.0000 0.0000 38.1105 54.5824 22.3662 -21.0074 31.8370 -6.0538 0.0000 0.0000 1.7656 -0.4805 -25.9099 0.2100 7.1250 -0.0000 -0.0000 30.1601 -53.2219 -6.5725
0.6095 17.1737 -1.0676 152.9180 80.9550 143.0840 0.0000 0.0000 0.0000 -28.1279 -0.3621 22.4978 0.6063 4.9839 13.8626 0.6975 -3.5695 -14.9711 0.2508 -3.2222 -8.8981 0.0000 0.0000 0.0000 -0.7626 -7.5415 2.4811 -0.0895 -1.9290 5.3096 -0.0363 -4.4511 -7.5581 -0.5928 -4.9292 13.7067 -11.5497 2.1099 0.1393 -1.6776 3.1649 3.2081 4.7616 1.3554 2.7836 5.4622 0.5720 -25.9368 -3.2081 0.7377 37.9893 -2.1974 1.0130 18.8673 0.0000 0.0000 0.0000 -26.5970 -58.0952 21.1143 23.9880 -35.1516 -7.6997 -0.0000 -0.0000 0.4835 -4.5119 -26.5903 2.0229 -7.1250 0.0000 -0.0000 -20.4135 4.6639 20.0293 0.0000 0.0000 0.0000 37.2590 54.6193 22.0868 -21.1190 31.9670 -6.1128 0.0000 0.0000 1.4031 -0.4487 -25.9993 0.1967 7.1250 -0.0000 -0.0000 30.2502 -53.2934 -6.6508
0.6642 17.1764 -1.0488 153.4860 80.6304 143.6420 0.0000 0.0000 0.0000 -28.0870 -0.3916 22.6310 0.6182 5.0320 13.9999 0.6930 -3.6247 -14.9161 0.2532 -3.2377 -8.9412 0.0000 0.0000 0.0000 -0.8328 -7.4436 2.6392 -0.0799 -1.8228 5.0162 -0.0334 -4.5467 -7.5897 -0.5637 -4.8089 13.3643 -11.5855 2.0855 0.3023 -1.7471 3.0973 3.0504 4.6973 1.3410 2.5378 5.3525 0.5729 -26.0172 -3.0187 0.7109 38.0546 -2.0942 1.0186 18.9242 -0.0000 -0.0000 0.0000 -26.6535 -57.9469 21.2708 24.0145 -35.1796 -7.7149 -0.0000 -0.0000 0.4639 -4.6053 -26.4136 2.0522 -7.1250 0.0000 -0.0000 -20.4752 4.8336 20.0295 -0.0000 -0.0000 0.0000 37.4280 54.4729 22.3616 -21.1736 32.0304 -6.1417 0.0000 0.0000 1.4221 -0.3792 -25.9742 0.1661 7.1250 -0.0000 -0.0000 30.2977 -53.2594 -6.6364
0.7200 17.1771 -1.0313 153.7110 80.4377 143.8700 0.0000 0.0000 0.0000 -28.0133 -0.3505 22.8021 0.6124 5.0085 13.9327 0.6768 -3.7600 -14.7213 0.2022 -2.8955 -7.9881 0.0000 0.0000 0.0000 -0.8476 -7.2421 2.6909 -0.0765 -1.7842 4.9098 -0.0359 -4.5594 -7.6771 -0.5740 -4.8516 13.4859 -11.6389 2.1011 0.3654 -1.7709 3.0955 2.9022 4.6953 1.3543 2.3447 5.3019 0.5891 -26.0098 -2.9111 0.7251 38.1125 -2.0300 1.0382 18.9572 -0.0000 0.0000 0.0000 -26.9079 -57.8761 21.4083 24.0016 -35.1659 -7.7075 -0.0000 -0.0000 0.5928 -4.5812 -26.4118 2.0413 -7.1250 0.0000 -0.0000 -20.4617 4.8344 20.0140 -0.0000 0.0000 0.0000 37.6414 54.3988 22.5200 -21.1387 31.9899 -6.1233 0.0000 0.0000 1.5680 -0.3377 -25.9628 0.1479 7.1250 -0.0000 -0.0000 30.3283 -53.2422 -6.6307
0.7777 17.1782 -1.0157 154.2950 80.2359 144.4520 0.0000 0.0000 0.0000 -27.8581 -0.2976 22.9993 0.6037 4.9734 13.8327 0.6522 -4.0251 -14.4218 0.1209 -2.2413 -6.1729 0.0000 0.0000 0.0000 -0.8622 -7.2766 2.6519 -0.0767 -1.7861 4.9148 -0.0440 -4.3853 -7.7064 -0.5828 -4.8882 13.5901 -11.5920 2.1438 0.2666 -1.8239 3.1584 2.8077 4.6159 1.3932 2.2949 5.3998 0.5230 -25.8633 -2.9271 0.5956 38.0853 -2.0822 1.0030 18.8938 -0.0000 -0.0000 0.0000 -26.9930 -57.9350 21.6293 24.0519 -35.2191 -7.7365 -0.0000 -0.0000 0.5342 -4.5274 -26.4604 2.0207 -7.1250 0.0000 -0.0000 -20.4288 4.7867 19.9965 -0.0000 -0.0000 0.0000 37.8232 54.2527 22.4357 -21.0440 31.8796 -6.0731 0.0000 0.0000 1.7617 -0.3241 -25.7549 0.1408 7.1250 -0.0000 -0.0000 30.2007 -53.0603 -6.4573
